<svg width="192" height="63" viewBox="0 0 192 63" fill="none" xmlns="http://www.w3.org/2000/svg">
<path d="M40.7594 20.6734C40.7594 15.7266 44.6128 12.1904 49.7989 12.1904C52.6778 12.1904 55.0794 13.2239 56.6506 15.0948L54.1745 17.3429C53.0557 16.0793 51.6535 15.423 49.9878 15.423C46.8702 15.423 44.6576 17.578 44.6576 20.6734C44.6576 23.7688 46.8702 25.9238 49.9878 25.9238C51.6535 25.9238 53.0557 25.2675 54.1745 23.9794L56.6506 26.2274C55.0794 28.1278 52.6778 29.1563 49.774 29.1563C44.6128 29.1563 40.7544 25.6152 40.7544 20.6734H40.7594Z" fill="white"/>
<path d="M72.4029 16.2654L66.6202 29.6461C65.3821 32.6925 63.6219 33.6084 61.3148 33.6084C60.0071 33.6084 58.5801 33.1872 57.7448 32.4623L59.1022 29.8616C59.674 30.3514 60.4596 30.6599 61.1955 30.6599C62.2198 30.6599 62.7916 30.2142 63.2888 29.0877L63.3385 28.9702L57.7945 16.2654H61.6231L65.218 24.8218L68.8328 16.2654H72.4029Z" fill="white"/>
<path d="M88.5822 22.569C88.5822 26.5313 85.7977 29.0585 82.2078 29.0585C80.4923 29.0585 79.115 28.5198 78.1852 27.4178V28.8724H74.64V11.4854H78.3493V17.6027C79.299 16.5692 80.6117 16.0795 82.2028 16.0795C85.7977 16.0795 88.5772 18.6116 88.5772 22.569H88.5822ZM84.8231 22.569C84.8231 20.3895 83.421 19.0769 81.5614 19.0769C79.7017 19.0769 78.2996 20.3895 78.2996 22.569C78.2996 24.7485 79.7017 26.0611 81.5614 26.0611C83.421 26.0611 84.8231 24.7485 84.8231 22.569Z" fill="white"/>
<path d="M104.235 23.6023H94.5495C94.9075 25.1745 96.2649 26.1345 98.214 26.1345C99.5714 26.1345 100.546 25.7377 101.426 24.9149L103.4 27.0258C102.212 28.3629 100.427 29.0633 98.1195 29.0633C93.6942 29.0633 90.8153 26.3206 90.8153 22.5738C90.8153 18.827 93.744 16.0842 97.6422 16.0842C101.54 16.0842 104.305 18.5674 104.305 22.6227C104.305 22.9019 104.255 23.3035 104.235 23.6072V23.6023ZM94.5047 21.4718H100.81C100.546 19.88 99.3327 18.8466 97.667 18.8466C96.0013 18.8466 94.7633 19.8555 94.5047 21.4718Z" fill="white"/>
<path d="M115.443 16.0793V19.4539C115.134 19.4294 114.896 19.4049 114.612 19.4049C112.564 19.4049 111.211 20.5069 111.211 22.9215V28.8723H107.502V16.2655H111.047V17.9307C111.952 16.7112 113.474 16.0793 115.448 16.0793H115.443Z" fill="white"/>
<path d="M128.623 25.3607H120.892L119.415 28.8773H115.467L122.89 12.4697H126.699L134.148 28.8773H130.105L128.628 25.3607H128.623ZM127.41 22.4759L124.77 16.1969L122.13 22.4759H127.41Z" fill="white"/>
<path d="M149.417 16.2654V26.7663C149.417 31.4534 146.847 33.6084 142.232 33.6084C139.806 33.6084 137.449 33.0207 135.952 31.8746L137.429 29.2494C138.523 30.1163 140.308 30.6796 141.949 30.6796C144.564 30.6796 145.708 29.509 145.708 27.2364V26.6977C144.733 27.7507 143.326 28.2699 141.665 28.2699C138.12 28.2699 135.266 25.8553 135.266 22.1771C135.266 18.4988 138.12 16.0842 141.665 16.0842C143.451 16.0842 144.927 16.672 145.902 17.8866V16.2703H149.422L149.417 16.2654ZM145.753 22.1722C145.753 20.3208 144.351 19.0768 142.396 19.0768C140.442 19.0768 139.02 20.3208 139.02 22.1722C139.02 24.0235 140.447 25.2675 142.396 25.2675C144.346 25.2675 145.753 24.0235 145.753 22.1722Z" fill="white"/>
<path d="M152.625 22.5689C152.625 18.7731 155.599 16.0793 159.666 16.0793C163.733 16.0793 166.687 18.7731 166.687 22.5689C166.687 26.3647 163.738 29.0584 159.666 29.0584C155.594 29.0584 152.625 26.3647 152.625 22.5689ZM162.928 22.5689C162.928 20.3894 161.526 19.0768 159.666 19.0768C157.806 19.0768 156.384 20.3894 156.384 22.5689C156.384 24.7484 157.811 26.061 159.666 26.061C161.521 26.061 162.928 24.7484 162.928 22.5689Z" fill="white"/>
<path d="M177.819 16.0793V19.4539C177.511 19.4294 177.272 19.4049 176.989 19.4049C174.94 19.4049 173.588 20.5069 173.588 22.9215V28.8723H169.878V16.2655H173.423V17.9307C174.328 16.7112 175.85 16.0793 177.824 16.0793H177.819Z" fill="white"/>
<path d="M192 21.6775V28.8723H188.525V27.3001C187.833 28.4462 186.501 29.0584 184.621 29.0584C181.623 29.0584 179.838 27.4177 179.838 25.2382C179.838 23.0587 181.434 21.4669 185.332 21.4669H188.281C188.281 19.8947 187.331 18.9837 185.332 18.9837C183.975 18.9837 182.573 19.4294 181.643 20.1543L180.311 17.5977C181.713 16.6132 183.786 16.0745 185.83 16.0745C189.733 16.0745 191.99 17.8572 191.99 21.6775H192ZM188.291 24.8904V23.6023H185.745C184.01 23.6023 183.463 24.2341 183.463 25.0766C183.463 25.9924 184.249 26.5998 185.556 26.5998C186.794 26.5998 187.863 26.0365 188.291 24.8904Z" fill="white"/>
<path d="M42.9168 45.8626V47.7532C42.9168 48.6152 43.1356 49.2225 43.5732 49.5702C44.0107 49.918 44.7665 50.0943 45.8306 50.0943C46.7604 50.0943 47.4316 49.9768 47.8493 49.7417C48.3565 49.4625 48.6449 48.958 48.7194 48.2282H47.8642L47.1432 47.3564V46.8373H50.9569V48.2282H50.4299C50.3553 49.3645 49.8979 50.2167 49.0476 50.7898C48.3863 51.2551 47.541 51.4853 46.5167 51.4853H45.1494C43.9908 51.4853 43.061 51.1914 42.3699 50.5988C41.6042 49.9816 41.2213 49.0854 41.2213 47.905V46.5287L42.0765 45.8626H42.9069H42.9168ZM44.7417 52.2738C45.2389 52.2738 45.6416 52.6705 45.6367 53.1603C45.6367 53.6501 45.2339 54.0468 44.7367 54.0419C44.498 54.0419 44.2693 53.9488 44.1052 53.7823C43.7522 53.4395 43.7522 52.8762 44.1052 52.5285C44.2743 52.362 44.503 52.2689 44.7417 52.2689V52.2738ZM46.8399 52.2738C47.3372 52.2738 47.7399 52.6705 47.7399 53.1603C47.7399 53.6501 47.3372 54.0468 46.8399 54.0468C46.6062 54.0468 46.3825 53.9537 46.2184 53.7872C45.8703 53.4395 45.8703 52.8811 46.2184 52.5334C46.3825 52.3669 46.6062 52.2738 46.8399 52.2738ZM52.2149 46.8422C51.9862 46.2789 51.8718 45.6765 51.8818 45.0741C51.8818 44.0015 52.2199 43.1738 52.8911 42.5811C53.453 42.0816 54.174 41.8269 55.0491 41.8171C55.8347 41.8171 56.4712 41.9983 56.9684 42.3607C57.575 42.8162 57.8783 43.4676 57.8783 44.3198V46.4993C57.8783 46.5826 57.9032 46.661 57.9479 46.7295C58.0125 46.7981 58.102 46.8373 58.1965 46.8373H58.3208V48.2282H57.7142C57.3115 48.2331 56.9286 48.0764 56.6502 47.7923C56.2225 48.3409 55.5563 48.6593 54.8552 48.6348C54.0795 48.6446 53.3337 48.3262 52.8116 47.763H52.7867L52.3989 48.2282H49.7586V46.8373H52.2199L52.2149 46.8422ZM56.1977 44.3247C56.2126 44.0211 56.0933 43.7272 55.8795 43.5068C55.6607 43.2864 55.3574 43.1738 55.0491 43.1933C54.6215 43.1787 54.2187 43.3746 53.9651 43.7125C53.6917 44.0554 53.5574 44.5206 53.5574 45.1035C53.5326 45.652 53.6768 46.1908 53.9701 46.6561C54.1939 47.0283 54.5966 47.2536 55.0342 47.2536C55.432 47.2536 55.8198 47.0675 56.1927 46.6952V44.3247H56.1977ZM60.7871 46.8422V48.2331H58.2313V46.8422H60.7871ZM62.8605 46.8422V48.2331H60.3047V46.8422H62.8605ZM66.6891 38.9715C67.1863 38.9715 67.5841 39.3633 67.5891 39.8531C67.5891 40.0833 67.4946 40.3037 67.3255 40.4653C67.1614 40.6367 66.9278 40.7298 66.6891 40.7249C66.2018 40.72 65.814 40.333 65.804 39.8531C65.804 39.618 65.8935 39.3927 66.0676 39.2261C66.2316 39.0596 66.4554 38.9666 66.6891 38.9666V38.9715ZM68.7874 38.9715C69.2846 38.9715 69.6824 39.3633 69.6873 39.8531C69.6873 40.0833 69.5929 40.3037 69.4238 40.4653C69.2597 40.6367 69.026 40.7298 68.7874 40.7249C68.3001 40.72 67.9123 40.333 67.9023 39.8531C67.9023 39.618 67.9918 39.3927 68.1658 39.2261C68.3299 39.0596 68.5537 38.9666 68.7874 38.9666V38.9715ZM65.1527 46.8422C64.9289 46.563 64.7599 46.2447 64.6554 45.9018C64.556 45.5639 64.5063 45.2161 64.5013 44.8684C64.4764 44.1386 64.73 43.4235 65.2074 42.8652C65.804 42.155 66.6493 41.8024 67.7382 41.8024C68.4343 41.7779 69.1205 41.9934 69.6724 42.4146C70.2343 42.8897 70.5475 43.5901 70.5177 44.3198V46.7295C70.5177 47.0969 70.3884 47.4495 70.1448 47.7238C69.8713 48.0519 69.4586 48.238 69.026 48.2282H62.3782V46.8373H65.1576L65.1527 46.8422ZM68.8272 44.3247C68.8421 43.9819 68.6979 43.6537 68.4393 43.4284C68.2355 43.2766 67.9868 43.1933 67.7333 43.1982C67.1366 43.1982 66.699 43.4284 66.4355 43.8937C66.2466 44.2317 66.1571 44.6137 66.172 44.9957C66.172 45.603 66.3659 46.0781 66.7537 46.4259C67.0918 46.7148 67.5344 46.8667 67.9819 46.8471H68.4791C68.6482 46.8716 68.8023 46.754 68.8222 46.5924C68.8222 46.563 68.8222 46.5336 68.8222 46.5091V44.3296L68.8272 44.3247ZM75.4601 41.9689V46.8422H76.1662V48.2331H75.4452C75.3706 49.3205 74.9331 50.158 74.1325 50.7359C73.4712 51.2159 72.6558 51.4559 71.6862 51.4559C71.5221 51.4559 71.3431 51.4559 71.1492 51.4412L70.473 50.6086V50.0208C70.7564 50.0649 71.0448 50.0894 71.3282 50.0894C72.9591 50.0894 73.7745 49.3107 73.7745 47.7483V41.964H75.4601V41.9689ZM78.6274 46.8422V48.2331H76.0717V46.8422H78.6274ZM80.7008 46.8422V48.2331H78.1451V46.8422H80.7008ZM84.3753 38.4817V46.7295C84.3803 47.092 84.251 47.4397 84.0024 47.7091C83.7339 48.047 83.3162 48.238 82.8837 48.2282H80.2136V46.8373H82.3417C82.4411 46.8373 82.5356 46.7981 82.6052 46.7295C82.6698 46.6708 82.7047 46.5826 82.6997 46.4993V38.4817H84.3703H84.3753ZM87.9702 38.4817V47.8903L87.115 48.5711H86.2847V38.4817H87.9702ZM94.0911 44.3639C94.3844 43.5019 94.996 42.777 95.8065 42.3362C96.4181 41.9934 97.1092 41.8171 97.8103 41.8171C98.5114 41.8122 99.1976 42.013 99.7892 42.3901C100.545 42.8407 101.112 43.5411 101.39 44.3639L101.236 44.7459C100.799 44.9565 100.401 45.2406 100.063 45.5884C99.7147 45.941 99.4511 46.372 99.302 46.8422H101.53V48.2282H98.4865C98.2081 48.2185 97.9495 48.0911 97.7805 47.8756H97.7108C97.497 48.096 97.2037 48.2331 96.8954 48.2576C96.8407 48.2674 96.791 48.2772 96.7413 48.287C96.1794 48.3801 95.7866 48.5956 95.5678 48.9384C95.3789 49.2617 95.2844 49.629 95.3043 50.0012C95.3043 51.3285 96.1943 51.9897 97.9744 51.9897C98.5213 51.9897 99.0633 51.9065 99.5904 51.7595V52.3326L98.8594 53.2191C98.4418 53.3268 98.0191 53.3807 97.5865 53.3807C96.4877 53.3807 95.5877 53.1211 94.8767 52.6069C94.0364 52.0093 93.6187 51.1228 93.6187 49.9523C93.6187 49.2078 93.7977 48.6054 94.1557 48.1401C94.5982 47.5328 95.2844 47.1409 96.2142 46.9695C96.0899 46.514 95.8612 46.0928 95.538 45.7451C95.185 45.319 94.7424 44.981 94.2402 44.7508L94.0861 44.3688L94.0911 44.3639ZM99.6202 44.2562C99.4163 43.8888 99.1031 43.595 98.7202 43.4137C98.4219 43.2766 98.0937 43.2031 97.7655 43.208C97.4026 43.208 97.0446 43.2864 96.7164 43.4382C96.3534 43.6146 96.0501 43.9035 95.8612 44.2562C96.249 44.4521 96.5921 44.7312 96.8556 45.0741C97.2435 45.4708 97.5318 45.941 97.7108 46.4651H97.7655C97.9595 45.9263 98.2677 45.4267 98.6655 45.0104C98.929 44.697 99.2523 44.4423 99.6202 44.2611V44.2562ZM103.891 46.8422C103.663 46.2789 103.548 45.6765 103.558 45.0741C103.558 44.0015 103.896 43.1738 104.568 42.5811C105.129 42.0816 105.85 41.8269 106.726 41.8171C107.511 41.8171 108.148 41.9983 108.645 42.3607C109.251 42.8162 109.555 43.4676 109.555 44.3198V46.4993C109.555 46.5826 109.58 46.661 109.624 46.7295C109.689 46.7981 109.778 46.8373 109.873 46.8373H109.997V48.2234H109.391C108.988 48.2282 108.605 48.0715 108.327 47.7874C107.899 48.336 107.233 48.6544 106.532 48.6299C105.756 48.6397 105.01 48.3262 104.488 47.7581H104.458L104.07 48.2185H101.43V46.8275H103.891V46.8422ZM107.874 44.3247C107.889 44.0211 107.77 43.7272 107.556 43.5068C107.337 43.2864 107.034 43.1738 106.726 43.1933C106.298 43.1787 105.895 43.3746 105.642 43.7125C105.368 44.0554 105.234 44.5206 105.234 45.0986C105.209 45.6471 105.353 46.1859 105.647 46.6512C105.87 47.0234 106.273 47.2487 106.711 47.2487C107.108 47.2487 107.496 47.0626 107.869 46.6904V44.3247H107.874ZM112.463 46.8422V48.2282H109.908V46.8373H112.463V46.8422ZM114.537 46.8422V48.2282H111.981V46.8373H114.537V46.8422ZM116.61 46.8422V48.2282H114.055V46.8373H116.61V46.8422ZM118.684 46.8422V48.2282H116.128V46.8373H118.684V46.8422ZM120.026 42.1991C120.797 41.9542 121.607 41.8171 122.418 41.8024C123.532 41.8024 124.432 42.1452 125.113 42.8358C125.734 43.4578 126.067 44.3051 126.038 45.1769V46.8373H126.495V48.2282H126.207L125.749 47.6699H125.719C125.436 48.0274 125.003 48.2331 124.546 48.2282H118.187V46.8373H124.004C124.173 46.8618 124.327 46.7442 124.347 46.5826C124.347 46.5532 124.347 46.5238 124.347 46.4993V45.2749C124.372 44.7117 124.138 44.168 123.721 43.786C123.303 43.4088 122.751 43.2227 122.07 43.2227C121.379 43.257 120.693 43.355 120.026 43.5215V42.1991ZM121.96 49.2225C122.458 49.2225 122.86 49.6192 122.86 50.109C122.86 50.5988 122.458 50.9955 121.96 50.9955C121.727 50.9955 121.503 50.9024 121.339 50.7359C120.991 50.3882 120.991 49.8298 121.339 49.4821C121.503 49.3156 121.727 49.2225 121.96 49.2225ZM127.738 38.9715C128.235 38.9715 128.633 39.3633 128.638 39.8531C128.638 40.0882 128.544 40.3086 128.375 40.4702C128.022 40.813 127.455 40.813 127.102 40.4702C126.933 40.3086 126.838 40.0882 126.838 39.858C126.838 39.3682 127.236 38.9764 127.733 38.9715H127.738ZM129.836 38.9715C130.334 38.9715 130.731 39.3633 130.736 39.8531C130.736 40.0882 130.642 40.3086 130.473 40.4702C130.304 40.6416 130.075 40.7347 129.836 40.7298C129.349 40.7249 128.961 40.3379 128.951 39.858C128.951 39.6229 129.041 39.3976 129.215 39.231C129.379 39.0645 129.603 38.9715 129.836 38.9715ZM130.557 41.9689V46.8422H131.263V48.2331H130.781L130.269 47.6748H130.239C129.956 48.0323 129.523 48.238 129.066 48.2331H126.396V46.8422H128.484C128.588 46.852 128.693 46.8128 128.762 46.7344C128.842 46.6659 128.887 46.5679 128.887 46.4602V41.9689H130.557ZM135.326 38.4817V46.7295C135.331 47.092 135.201 47.4397 134.953 47.7091C134.684 48.047 134.267 48.238 133.834 48.2282H131.164V46.8373H133.292C133.392 46.8373 133.486 46.7981 133.556 46.7295C133.62 46.6708 133.655 46.5826 133.65 46.4993V38.4817H135.321H135.326ZM138.921 38.4817V47.8903L138.066 48.5711H137.235V38.4817H138.921Z" fill="white"/>
<path d="M3.54237 35.6215L6.67488 40.96L5.4716 43.0122L5.43679 43.071V53.7481L0.012085 63V43.0122C0.0170572 42.1894 0.215947 41.3812 0.593836 40.6466L0.897143 40.1323L3.5374 35.6264L3.54237 35.6215Z" fill="url(#paint0_linear_123_97)"/>
<path d="M24.2368 43.0463C24.2368 43.2177 24.2269 43.3891 24.212 43.5606V62.9312L18.7922 53.6843V43.0169H18.7972L18.7773 42.9875L16.0973 38.413L14.8592 36.3021L12.1344 31.6492L10.1903 34.965L7.06274 29.6264L7.35611 29.1268C8.27597 27.4518 10.0709 23.8862 12.1344 23.8862C13.9344 23.8862 16.0128 27.4665 16.9277 29.1513L23.5159 40.3966C23.9882 41.2047 24.2368 42.1255 24.2368 43.061V43.0463Z" fill="url(#paint1_linear_123_97)"/>
<path d="M5.43679 22.1085V27.5059L6.86879 29.9499L8.14666 32.1343L9.99633 35.2884L12.1244 38.9177V49.5948L6.86879 40.627L5.42685 38.1683L3.73629 35.2884L0.738031 30.1752H0.743003C0.265669 29.3572 0.012085 28.4315 0.012085 27.4912V21.7804C0.0667795 20.9576 0.315391 20.1592 0.738031 19.4441L5.41193 11.4755L6.70471 9.27148L12.1344 0V10.6771L11.0355 12.5481L8.13671 17.4948L5.43182 22.1085H5.43679Z" fill="url(#paint2_linear_123_97)"/>
<path d="M0.0169783 21.7755V22.4955C0.00698942 22.3779 0.00698942 22.2555 0.00199498 22.1379C-0.00299945 22.0204 0.00199498 21.898 0.0169783 21.7804V21.7755Z" fill="url(#paint3_linear_123_97)"/>
<path d="M8.14611 32.1343L5.43127 27.5059V27.4863L8.14611 32.1343Z" fill="url(#paint4_linear_123_97)"/>
<defs>
<linearGradient id="paint0_linear_123_97" x1="3.63764" y1="35.6665" x2="3.63764" y2="62.8822" gradientUnits="userSpaceOnUse">
<stop stop-color="#0088C2"/>
<stop offset="1" stop-color="#00AAA4"/>
</linearGradient>
<linearGradient id="paint1_linear_123_97" x1="15.6387" y1="22.7488" x2="15.6387" y2="62.102" gradientUnits="userSpaceOnUse">
<stop stop-color="#0088C2"/>
<stop offset="1" stop-color="#00AAA4"/>
</linearGradient>
<linearGradient id="paint2_linear_123_97" x1="6.11003" y1="-0.294013" x2="6.11003" y2="49.6821" gradientUnits="userSpaceOnUse">
<stop stop-color="#0088C2"/>
<stop offset="1" stop-color="#00AAA4"/>
</linearGradient>
<linearGradient id="paint3_linear_123_97" x1="-1.32343" y1="21.7755" x2="-1.32343" y2="22.5004" gradientUnits="userSpaceOnUse">
<stop stop-color="#0088C2"/>
<stop offset="1" stop-color="#00AAA4"/>
</linearGradient>
<linearGradient id="paint4_linear_123_97" x1="6.73574" y1="26.5942" x2="6.73574" y2="31.2135" gradientUnits="userSpaceOnUse">
<stop stop-color="#0088C2"/>
<stop offset="1" stop-color="#00AAA4"/>
</linearGradient>
</defs>
</svg>
