<svg width="150" height="49" viewBox="0 0 150 49" fill="none" xmlns="http://www.w3.org/2000/svg">
<path d="M31.8432 16.0793C31.8432 12.2318 34.8538 9.48145 38.9054 9.48145C41.1545 9.48145 43.0308 10.2852 44.2583 11.7404L42.3238 13.4889C41.4498 12.5061 40.3543 11.9956 39.053 11.9956C36.6174 11.9956 34.8887 13.6718 34.8887 16.0793C34.8887 18.4868 36.6174 20.1629 39.053 20.1629C40.3543 20.1629 41.4498 19.6525 42.3238 18.6506L44.2583 20.3991C43.0308 21.8772 41.1545 22.6771 38.886 22.6771C34.8538 22.6771 31.8394 19.9229 31.8394 16.0793H31.8432Z" fill="black"/>
<path d="M56.5645 12.6509L52.0467 23.0581C51.0795 25.4275 49.7043 26.1399 47.9019 26.1399C46.8803 26.1399 45.7654 25.8123 45.1128 25.2485L46.1733 23.2257C46.62 23.6066 47.2338 23.8466 47.8087 23.8466C48.6089 23.8466 49.0556 23.5 49.4441 22.6238L49.4829 22.5324L45.1516 12.6509H48.1428L50.9513 19.3059L53.7754 12.6509H56.5645Z" fill="black"/>
<path d="M69.2048 17.5537C69.2048 20.6355 67.0295 22.6011 64.2248 22.6011C62.8846 22.6011 61.8086 22.1821 61.0822 21.325V22.4564H58.3125V8.93311H61.2104V13.691C61.9523 12.8872 62.9779 12.5063 64.2209 12.5063C67.0295 12.5063 69.2009 14.4757 69.2009 17.5537H69.2048ZM66.2681 17.5537C66.2681 15.8586 65.1726 14.8376 63.7198 14.8376C62.267 14.8376 61.1715 15.8586 61.1715 17.5537C61.1715 19.2489 62.267 20.2698 63.7198 20.2698C65.1726 20.2698 66.2681 19.2489 66.2681 17.5537Z" fill="black"/>
<path d="M81.4337 18.3574H73.8665C74.1462 19.5802 75.2067 20.3268 76.7294 20.3268C77.7899 20.3268 78.5513 20.0183 79.2389 19.3783L80.781 21.0202C79.8526 22.0601 78.4581 22.6049 76.6556 22.6049C73.1984 22.6049 70.9492 20.4716 70.9492 17.5574C70.9492 14.6433 73.2372 12.51 76.2827 12.51C79.3282 12.51 81.488 14.4414 81.488 17.5955C81.488 17.8127 81.4492 18.125 81.4337 18.3612V18.3574ZM73.8316 16.7003H78.7572C78.5513 15.4623 77.6035 14.6585 76.3021 14.6585C75.0008 14.6585 74.0336 15.4432 73.8316 16.7003Z" fill="black"/>
<path d="M90.1895 12.5061V15.1308C89.9486 15.1117 89.7622 15.0927 89.5408 15.0927C87.9403 15.0927 86.8837 15.9498 86.8837 17.8278V22.4562H83.9858V12.6509H86.7555V13.946C87.4625 12.9975 88.6512 12.5061 90.1934 12.5061H90.1895Z" fill="black"/>
<path d="M100.487 19.725H94.4466L93.2928 22.4601H90.2085L96.0081 9.69873H98.9837L104.803 22.4601H101.645L100.491 19.725H100.487ZM99.5392 17.4813L97.4765 12.5977L95.4138 17.4813H99.5392Z" fill="black"/>
<path d="M116.732 12.651V20.8183C116.732 24.4638 114.724 26.14 111.119 26.14C109.223 26.14 107.382 25.6828 106.213 24.7914L107.367 22.7496C108.221 23.4239 109.616 23.8619 110.898 23.8619C112.941 23.8619 113.834 22.9515 113.834 21.184V20.7649C113.073 21.5839 111.974 21.9877 110.676 21.9877C107.906 21.9877 105.677 20.1097 105.677 17.2489C105.677 14.388 107.906 12.51 110.676 12.51C112.071 12.51 113.224 12.9671 113.986 13.9119V12.6548H116.736L116.732 12.651ZM113.869 17.2451C113.869 15.8051 112.774 14.8375 111.247 14.8375C109.721 14.8375 108.61 15.8051 108.61 17.2451C108.61 18.685 109.724 19.6526 111.247 19.6526C112.77 19.6526 113.869 18.685 113.869 17.2451Z" fill="black"/>
<path d="M119.238 17.5535C119.238 14.6013 121.561 12.5061 124.739 12.5061C127.916 12.5061 130.224 14.6013 130.224 17.5535C130.224 20.5058 127.92 22.6009 124.739 22.6009C121.557 22.6009 119.238 20.5058 119.238 17.5535ZM127.287 17.5535C127.287 15.8584 126.192 14.8374 124.739 14.8374C123.286 14.8374 122.175 15.8584 122.175 17.5535C122.175 19.2487 123.29 20.2696 124.739 20.2696C126.188 20.2696 127.287 19.2487 127.287 17.5535Z" fill="black"/>
<path d="M138.921 12.5061V15.1308C138.68 15.1117 138.494 15.0927 138.272 15.0927C136.672 15.0927 135.615 15.9498 135.615 17.8278V22.4562H132.717V12.6509H135.487V13.946C136.194 12.9975 137.383 12.5061 138.925 12.5061H138.921Z" fill="black"/>
<path d="M150 16.8604V22.4563H147.285V21.2335C146.745 22.1249 145.704 22.6011 144.235 22.6011C141.893 22.6011 140.499 21.325 140.499 19.6298C140.499 17.9346 141.745 16.6966 144.791 16.6966H147.095C147.095 15.4738 146.353 14.7652 144.791 14.7652C143.73 14.7652 142.635 15.1119 141.909 15.6757L140.868 13.6872C141.963 12.9215 143.583 12.5024 145.179 12.5024C148.229 12.5024 149.992 13.8891 149.992 16.8604H150ZM147.102 19.3593V18.3575H145.113C143.758 18.3575 143.33 18.8489 143.33 19.5041C143.33 20.2164 143.944 20.6888 144.966 20.6888C145.933 20.6888 146.768 20.2507 147.102 19.3593Z" fill="black"/>
<path d="M33.5287 35.6709V37.1413C33.5287 37.8118 33.6997 38.2841 34.0415 38.5546C34.3833 38.8251 34.9738 38.9622 35.8051 38.9622C36.5315 38.9622 37.0559 38.8708 37.3822 38.6879C37.7784 38.4708 38.0038 38.0784 38.062 37.5108H37.3939L36.8306 36.8328V36.429H39.8101V37.5108H39.3983C39.34 38.3946 38.9827 39.0574 38.3184 39.5031C37.8018 39.865 37.1414 40.0441 36.3412 40.0441H35.2729C34.3678 40.0441 33.6414 39.8155 33.1014 39.3546C32.5032 38.8746 32.2041 38.1775 32.2041 37.2594V36.189L32.8722 35.6709H33.521H33.5287ZM34.9544 40.6574C35.3428 40.6574 35.6575 40.9659 35.6536 41.3469C35.6536 41.7278 35.3389 42.0364 34.9505 42.0326C34.764 42.0326 34.5853 41.9602 34.4571 41.8307C34.1813 41.564 34.1813 41.1259 34.4571 40.8555C34.5892 40.7259 34.7679 40.6536 34.9544 40.6536V40.6574ZM36.5937 40.6574C36.9821 40.6574 37.2968 40.9659 37.2968 41.3469C37.2968 41.7278 36.9821 42.0364 36.5937 42.0364C36.4111 42.0364 36.2363 41.964 36.1081 41.8345C35.8362 41.564 35.8362 41.1297 36.1081 40.8593C36.2363 40.7298 36.4111 40.6574 36.5937 40.6574ZM40.7929 36.4328C40.6142 35.9947 40.5248 35.5261 40.5326 35.0576C40.5326 34.2233 40.7968 33.5796 41.3212 33.1186C41.7601 32.7301 42.3234 32.532 43.0071 32.5244C43.6208 32.5244 44.1181 32.6653 44.5065 32.9472C44.9804 33.3015 45.2174 33.8081 45.2174 34.471V36.1661C45.2174 36.2309 45.2368 36.2918 45.2718 36.3452C45.3223 36.3985 45.3922 36.429 45.466 36.429H45.5631V37.5108H45.0892C44.7745 37.5146 44.4754 37.3927 44.2579 37.1718C43.9238 37.5984 43.4033 37.8461 42.8556 37.827C42.2496 37.8346 41.6669 37.587 41.259 37.1489H41.2396L40.9366 37.5108H38.8739V36.429H40.7968L40.7929 36.4328ZM43.9044 34.4748C43.9161 34.2386 43.8228 34.01 43.6558 33.8386C43.4849 33.6672 43.2479 33.5796 43.0071 33.5948C42.673 33.5834 42.3583 33.7357 42.1602 33.9986C41.9466 34.2652 41.8417 34.6271 41.8417 35.0805C41.8223 35.5071 41.9349 35.9261 42.1641 36.288C42.3389 36.5775 42.6536 36.7528 42.9954 36.7528C43.3062 36.7528 43.6092 36.608 43.9005 36.3185V34.4748H43.9044ZM47.4899 36.4328V37.5146H45.4932V36.4328H47.4899ZM49.1097 36.4328V37.5146H47.113V36.4328H49.1097ZM52.1008 30.3111C52.4893 30.3111 52.8 30.6159 52.8039 30.9968C52.8039 31.1758 52.7301 31.3473 52.598 31.473C52.4699 31.6063 52.2873 31.6787 52.1008 31.6749C51.7201 31.6711 51.4171 31.3701 51.4094 30.9968C51.4094 30.814 51.4793 30.6387 51.6153 30.5092C51.7434 30.3797 51.9183 30.3073 52.1008 30.3073V30.3111ZM53.7401 30.3111C54.1286 30.3111 54.4393 30.6159 54.4432 30.9968C54.4432 31.1758 54.3694 31.3473 54.2373 31.473C54.1091 31.6063 53.9266 31.6787 53.7401 31.6749C53.3594 31.6711 53.0564 31.3701 53.0487 30.9968C53.0487 30.814 53.1186 30.6387 53.2545 30.5092C53.3827 30.3797 53.5575 30.3073 53.7401 30.3073V30.3111ZM50.9005 36.4328C50.7257 36.2156 50.5936 35.968 50.512 35.7014C50.4343 35.4385 50.3955 35.1681 50.3916 34.8976C50.3722 34.33 50.5703 33.7738 50.9432 33.3396C51.4094 32.7872 52.0697 32.5129 52.9205 32.5129C53.4643 32.4939 54.0004 32.6615 54.4316 32.9891C54.8705 33.3586 55.1152 33.9034 55.0919 34.471V36.3452C55.0919 36.6309 54.9909 36.9051 54.8006 37.1185C54.587 37.3737 54.2645 37.5185 53.9266 37.5108H48.7329V36.429H50.9044L50.9005 36.4328ZM53.7712 34.4748C53.7828 34.2081 53.6702 33.9529 53.4682 33.7776C53.3089 33.6596 53.1147 33.5948 52.9166 33.5986C52.4504 33.5986 52.1086 33.7776 51.9027 34.1395C51.7551 34.4024 51.6852 34.6995 51.6968 34.9966C51.6968 35.469 51.8483 35.8385 52.1513 36.109C52.4155 36.3337 52.7612 36.4518 53.1108 36.4366H53.4993C53.6313 36.4556 53.7518 36.3642 53.7673 36.2385C53.7673 36.2156 53.7673 36.1928 53.7673 36.1737V34.4786L53.7712 34.4748ZM58.9532 32.6425V36.4328H59.5048V37.5146H58.9415C58.8833 38.3603 58.5414 39.0117 57.916 39.4612C57.3994 39.8346 56.7623 40.0212 56.0048 40.0212C55.8766 40.0212 55.7368 40.0212 55.5853 40.0098L55.057 39.3622V38.9051C55.2784 38.9393 55.5037 38.9584 55.7251 38.9584C56.9993 38.9584 57.6363 38.3527 57.6363 37.1375V32.6386H58.9532V32.6425ZM61.4277 36.4328V37.5146H59.431V36.4328H61.4277ZM63.0475 36.4328V37.5146H61.0509V36.4328H63.0475ZM65.9182 29.9302V36.3452C65.9221 36.6271 65.8211 36.8975 65.6269 37.107C65.4171 37.3699 65.0908 37.5185 64.7528 37.5108H62.6668V36.429H64.3294C64.4071 36.429 64.4809 36.3985 64.5353 36.3452C64.5858 36.2995 64.613 36.2309 64.6091 36.1661V29.9302H65.9143H65.9182ZM68.7268 29.9302V37.248L68.0586 37.7775H67.4099V29.9302H68.7268ZM73.5086 34.5052C73.7378 33.8348 74.2156 33.271 74.8488 32.9282C75.3266 32.6615 75.8666 32.5244 76.4143 32.5244C76.962 32.5206 77.4981 32.6767 77.9604 32.9701C78.5508 33.3205 78.9937 33.8653 79.2112 34.5052L79.0908 34.8024C78.7489 34.9662 78.4382 35.1871 78.174 35.4576C77.9021 35.7319 77.6962 36.0671 77.5797 36.4328H79.32V37.5108H76.9426C76.7251 37.5032 76.5231 37.4042 76.391 37.2366H76.3366C76.1696 37.408 75.9404 37.5146 75.6995 37.5337C75.6568 37.5413 75.618 37.5489 75.5791 37.5565C75.1402 37.6289 74.8333 37.7965 74.6624 38.0632C74.5147 38.3146 74.4409 38.6003 74.4565 38.8898C74.4565 39.9222 75.1518 40.4364 76.5425 40.4364C76.9698 40.4364 77.3932 40.3717 77.805 40.2574V40.7031L77.2339 41.3926C76.9076 41.4764 76.5774 41.5183 76.2395 41.5183C75.381 41.5183 74.6779 41.3164 74.1224 40.9164C73.4659 40.4517 73.1396 39.7622 73.1396 38.8517C73.1396 38.2727 73.2795 37.8042 73.5591 37.4423C73.9049 36.9699 74.4409 36.6652 75.1674 36.5318C75.0702 36.1776 74.8916 35.8499 74.6391 35.5795C74.3633 35.2481 74.0175 34.9852 73.6252 34.8062L73.5048 34.509L73.5086 34.5052ZM77.8283 34.4214C77.669 34.1357 77.4243 33.9072 77.1252 33.7662C76.8921 33.6596 76.6357 33.6024 76.3793 33.6062C76.0958 33.6062 75.8161 33.6672 75.5597 33.7853C75.2761 33.9224 75.0392 34.1472 74.8915 34.4214C75.1945 34.5738 75.4626 34.7909 75.6685 35.0576C75.9715 35.3662 76.1968 35.7319 76.3366 36.1395H76.3793C76.5308 35.7204 76.7717 35.3319 77.0824 35.0081C77.2883 34.7643 77.5408 34.5662 77.8283 34.4252V34.4214ZM81.1651 36.4328C80.9864 35.9947 80.8971 35.5261 80.9049 35.0576C80.9049 34.2233 81.169 33.5796 81.6934 33.1186C82.1324 32.7301 82.6956 32.532 83.3793 32.5244C83.9931 32.5244 84.4903 32.6653 84.8788 32.9472C85.3527 33.3015 85.5896 33.8081 85.5896 34.471V36.1661C85.5896 36.2309 85.6091 36.2918 85.644 36.3452C85.6945 36.3985 85.7644 36.429 85.8383 36.429H85.9354V37.507H85.4614C85.1468 37.5108 84.8477 37.3889 84.6301 37.168C84.2961 37.5946 83.7755 37.8422 83.2278 37.8232C82.6218 37.8308 82.0391 37.587 81.6313 37.1451H81.608L81.305 37.5032H79.2423V36.4214H81.1651V36.4328ZM84.2766 34.4748C84.2883 34.2386 84.1951 34.01 84.028 33.8386C83.8571 33.6672 83.6202 33.5796 83.3793 33.5948C83.0452 33.5834 82.7306 33.7357 82.5325 33.9986C82.3188 34.2652 82.2139 34.6271 82.2139 35.0766C82.1945 35.5033 82.3072 35.9223 82.5364 36.2842C82.7112 36.5737 83.0258 36.749 83.3677 36.749C83.6784 36.749 83.9814 36.6042 84.2728 36.3147V34.4748H84.2766ZM87.8621 36.4328V37.5108H85.8654V36.429H87.8621V36.4328ZM89.482 36.4328V37.5108H87.4853V36.429H89.482V36.4328ZM91.1018 36.4328V37.5108H89.1052V36.429H91.1018V36.4328ZM92.7217 36.4328V37.5108H90.725V36.429H92.7217V36.4328ZM93.7705 32.8215C94.3726 32.631 95.0058 32.5244 95.639 32.5129C96.5091 32.5129 97.2122 32.7796 97.7444 33.3167C98.23 33.8005 98.4903 34.4595 98.467 35.1376V36.429H98.8243V37.5108H98.599L98.2417 37.0766H98.2183C97.9969 37.3546 97.659 37.5146 97.3016 37.5108H92.3332V36.429H96.8782C97.0102 36.448 97.1307 36.3566 97.1462 36.2309C97.1462 36.208 97.1462 36.1852 97.1462 36.1661V35.2138C97.1656 34.7757 96.9831 34.3529 96.6568 34.0557C96.3305 33.7624 95.8993 33.6177 95.3671 33.6177C94.8271 33.6443 94.291 33.7205 93.7705 33.85V32.8215ZM95.2816 38.2841C95.6701 38.2841 95.9847 38.5927 95.9847 38.9736C95.9847 39.3546 95.6701 39.6631 95.2816 39.6631C95.099 39.6631 94.9242 39.5908 94.7961 39.4612C94.5241 39.1908 94.5241 38.7565 94.7961 38.486C94.9242 38.3565 95.099 38.2841 95.2816 38.2841ZM99.7955 30.3111C100.184 30.3111 100.495 30.6159 100.499 30.9968C100.499 31.1797 100.425 31.3511 100.293 31.4768C100.017 31.7434 99.5741 31.7434 99.2983 31.4768C99.1662 31.3511 99.0924 31.1796 99.0924 31.0006C99.0924 30.6197 99.4031 30.3149 99.7916 30.3111H99.7955ZM101.435 30.3111C101.823 30.3111 102.134 30.6159 102.138 30.9968C102.138 31.1797 102.064 31.3511 101.932 31.4768C101.8 31.6101 101.621 31.6825 101.435 31.6787C101.054 31.6749 100.751 31.3739 100.743 31.0006C100.743 30.8178 100.813 30.6425 100.949 30.513C101.077 30.3835 101.252 30.3111 101.435 30.3111ZM101.998 32.6425V36.4328H102.55V37.5146H102.173L101.773 37.0804H101.749C101.528 37.3585 101.19 37.5185 100.833 37.5146H98.7466V36.4328H100.378C100.46 36.4404 100.541 36.4099 100.596 36.349C100.658 36.2956 100.693 36.2195 100.693 36.1356V32.6425H101.998ZM105.723 29.9302V36.3452C105.727 36.6271 105.626 36.8975 105.432 37.107C105.222 37.3699 104.896 37.5185 104.558 37.5108H102.472V36.429H104.135C104.212 36.429 104.286 36.3985 104.34 36.3452C104.391 36.2995 104.418 36.2309 104.414 36.1661V29.9302H105.719H105.723ZM108.532 29.9302V37.248L107.864 37.7775H107.215V29.9302H108.532Z" fill="black"/>
<path d="M2.76732 27.7056L5.21459 31.8578L4.27453 33.4539L4.24733 33.4996V41.8041L0.00927734 49V33.4539C0.0131619 32.8139 0.168544 32.1854 0.463771 31.614L0.700729 31.214L2.76343 27.7094L2.76732 27.7056Z" fill="url(#paint0_linear_123_76)"/>
<path d="M18.9349 33.4804C18.9349 33.6137 18.9271 33.7471 18.9154 33.8804V48.9465L14.6813 41.7544V33.4575H14.6851L14.6696 33.4347L12.5758 29.8767L11.6086 28.2349L9.47983 24.616L7.96097 27.1949L5.51758 23.0427L5.74677 22.6542C6.46541 21.3514 7.86774 18.5781 9.47983 18.5781C10.886 18.5781 12.5098 21.3628 13.2245 22.6732L18.3716 31.4195C18.7406 32.0481 18.9349 32.7642 18.9349 33.4918V33.4804Z" fill="url(#paint1_linear_123_76)"/>
<path d="M4.24721 17.1955V21.3935L5.36597 23.2943L6.3643 24.9933L7.80936 27.4466L9.47195 30.2693V38.5737L5.36597 31.5988L4.23944 29.6865L2.91869 27.4466L0.576301 23.4696H0.580186C0.207268 22.8334 0.00915527 22.1134 0.00915527 21.382V16.9403C0.0518855 16.3003 0.246114 15.6794 0.576301 15.1232L4.22779 8.92537L5.23778 7.21115L9.47972 0V8.30444L8.62123 9.75962L6.35653 13.6071L4.24333 17.1955H4.24721Z" fill="url(#paint2_linear_123_76)"/>
<path d="M0.0131104 16.9365V17.4965C0.00534127 17.4051 0.00534127 17.3098 0.00145671 17.2184C-0.00242785 17.127 0.00145671 17.0318 0.0131104 16.9403V16.9365Z" fill="url(#paint3_linear_123_76)"/>
<path d="M6.36413 24.9933L4.24316 21.3934V21.3782L6.36413 24.9933Z" fill="url(#paint4_linear_123_76)"/>
<defs>
<linearGradient id="paint0_linear_123_76" x1="2.84174" y1="27.7406" x2="2.84174" y2="48.9084" gradientUnits="userSpaceOnUse">
<stop stop-color="#0088C2"/>
<stop offset="1" stop-color="#00AAA4"/>
</linearGradient>
<linearGradient id="paint1_linear_123_76" x1="12.2175" y1="17.6934" x2="12.2175" y2="48.3015" gradientUnits="userSpaceOnUse">
<stop stop-color="#0088C2"/>
<stop offset="1" stop-color="#00AAA4"/>
</linearGradient>
<linearGradient id="paint2_linear_123_76" x1="4.77318" y1="-0.228677" x2="4.77318" y2="38.6417" gradientUnits="userSpaceOnUse">
<stop stop-color="#0088C2"/>
<stop offset="1" stop-color="#00AAA4"/>
</linearGradient>
<linearGradient id="paint3_linear_123_76" x1="-1.02943" y1="16.9365" x2="-1.02943" y2="17.5003" gradientUnits="userSpaceOnUse">
<stop stop-color="#0088C2"/>
<stop offset="1" stop-color="#00AAA4"/>
</linearGradient>
<linearGradient id="paint4_linear_123_76" x1="5.26228" y1="20.6843" x2="5.26228" y2="24.2771" gradientUnits="userSpaceOnUse">
<stop stop-color="#0088C2"/>
<stop offset="1" stop-color="#00AAA4"/>
</linearGradient>
</defs>
</svg>
