<svg width="155" height="44" viewBox="0 0 155 44" fill="none" xmlns="http://www.w3.org/2000/svg">
<path d="M52.4813 14.5482C52.4813 22.4028 60.925 23.4631 60.925 29.1184C60.925 31.082 60.061 31.789 58.6864 31.789C57.3119 31.789 56.4479 31.082 56.4479 29.1184V27.1548H52.3635V28.8435C52.3635 33.2421 54.5628 35.7555 58.8043 35.7555C63.0457 35.7555 65.245 33.2421 65.245 28.8435C65.245 20.989 56.8013 19.9286 56.8013 14.2733C56.8013 12.3097 57.5868 11.5635 58.9613 11.5635C60.3359 11.5635 61.1213 12.3097 61.1213 14.2733V15.4122H65.2057V14.5482C65.2057 10.1497 63.0457 7.63623 58.8435 7.63623C54.6413 7.63623 52.4813 10.1497 52.4813 14.5482Z" fill="#969696"/>
<path d="M71.4967 35.4413H75.8167V26.33L81.2756 7.95041H77.152L73.8531 20.4784L70.5542 7.95041H66.0378L71.4967 26.33V35.4413Z" fill="#969696"/>
<path d="M88.9921 7.95041H82.9834V35.4413H86.7535V16.0013L89.9739 35.4413H94.0583L97.043 15.7264V35.4413H101.127V7.95041H95.1186L92.1732 27.469L88.9921 7.95041Z" fill="#969696"/>
<path d="M103.013 11.8777H107.529V35.4413H111.849V11.8777H116.366V7.95041H103.013V11.8777Z" fill="#969696"/>
<path d="M131.7 35.4413C131.268 34.4202 131.228 33.4384 131.228 32.1031V27.8617C131.228 24.9948 130.521 22.9133 128.361 22.01C130.286 21.1068 131.189 19.261 131.189 16.4333V14.2733C131.189 10.0319 129.265 7.95041 124.788 7.95041H118.268V35.4413H122.588V24.2486H124.081C126.044 24.2486 126.908 25.1911 126.908 27.7439V32.0639C126.908 34.3024 127.065 34.7344 127.301 35.4413H131.7ZM124.67 11.8777C126.201 11.8777 126.869 12.7417 126.869 14.7053V17.4151C126.869 19.6144 125.887 20.3213 124.277 20.3213H122.588V11.8777H124.67Z" fill="#969696"/>
<path d="M134.07 35.4413H138.39V7.95041H134.07V35.4413Z" fill="#969696"/>
<path d="M149.992 25.1911V29.1184C149.992 31.082 149.128 31.789 147.753 31.789C146.379 31.789 145.515 31.082 145.515 29.1184V14.2733C145.515 12.3097 146.379 11.5635 147.753 11.5635C149.128 11.5635 149.992 12.3097 149.992 14.2733V17.2188H154.076V14.5482C154.076 10.1497 151.877 7.63623 147.635 7.63623C143.394 7.63623 141.195 10.1497 141.195 14.5482V28.8435C141.195 33.2421 143.394 35.7555 147.635 35.7555C151.877 35.7555 154.076 33.2421 154.076 28.8435V25.1911H149.992Z" fill="#969696"/>
<g clip-path="url(#clip0_79_225)">
<path fill-rule="evenodd" clip-rule="evenodd" d="M14.8435 13.8349L12.4829 17.9161L10.2367 14.0199L12.5856 9.93873H28.9926L32.4763 3.89624H9.09898L4.49225 11.8868C7.94805 17.8569 11.3985 23.827 14.8435 29.7971H21.8109C20.061 26.768 18.312 23.7394 16.564 20.7113L16.0796 19.873H32.0476L38.9151 31.7642L32.0476 43.6364H6.85289L0.0558404 31.6498L3.46906 25.7218L5.72985 29.6165L4.50695 31.7496L9.11368 39.7402H29.7883L34.4097 31.7496L29.803 23.759H22.8356C24.3134 26.333 25.7922 28.9064 27.272 31.4794L27.4394 31.7452L26.3163 33.6933H12.5974C8.44473 26.5126 4.29748 19.3372 0.155622 12.1672L0 11.8824L6.85289 -0.00878906H39.2411L31.2563 13.8349H14.8435Z" fill="#969696"/>
</g>
<defs>
<clipPath id="clip0_79_225">
<rect width="39.2425" height="43.6364" fill="white"/>
</clipPath>
</defs>
</svg>
