<svg width="185" height="44" viewBox="0 0 185 44" fill="none" xmlns="http://www.w3.org/2000/svg">
<g clip-path="url(#clip0_79_243)">
<path fill-rule="evenodd" clip-rule="evenodd" d="M4.48853 40.8484L8.315 38.6544L9.8513 37.7729L11.3596 36.9033L13.7261 35.5471L17.4846 33.401L21.2471 35.5471L23.6097 36.9033L25.1178 37.7729L26.6582 38.6544L30.4046 40.8165L31.5437 41.4627L32.6548 42.0969L34.9091 43.3893V22.6229L30.4046 20.0341V35.6747L27.356 33.9196L22.8635 31.3507L21.1507 30.3535L19.739 29.5557V3.76725H15.2342V30.17L12.1056 31.969L7.61716 34.5578L4.48853 36.3409V20.066L-0.00012207 22.6389V43.4212L2.23813 42.1288L3.36138 41.4946L4.48853 40.8484ZM27.3521 30.3375V-0.891846H22.8596V27.7687L27.3521 30.3375ZM12.1097 28.367V8.42235H7.62107V30.9558L12.1097 28.367Z" fill="#969696"/>
</g>
<path d="M53.941 31.091H57.8646L61.4813 18.6416H61.6301L65.2561 31.091H69.1797L74.628 12.0496H70.2303L67.0784 25.3079H66.9111L63.4431 12.0496H59.6776L56.2003 25.28H56.0423L52.8904 12.0496H48.4927L53.941 31.091Z" fill="#969696"/>
<path d="M76.7827 31.091H89.6505V27.7717H80.8085V23.2253H88.9532V19.906H80.8085V15.3689H89.6133V12.0496H76.7827V31.091Z" fill="#969696"/>
<path d="M92.814 31.091H105.003V27.7717H96.8398V12.0496H92.814V31.091Z" fill="#969696"/>
<path d="M104.124 12.0496L111.07 24.3596V31.091H115.068V24.3596L122.013 12.0496H117.504L113.162 20.2501H112.976L108.634 12.0496H104.124Z" fill="#969696"/>
<path d="M124.688 15.3689H130.518V31.091H134.497V15.3689H140.327V12.0496H124.688V15.3689Z" fill="#969696"/>
<path d="M146.928 12.0496H142.902V31.091H146.928V12.0496Z" fill="#969696"/>
<path d="M167.041 18.716C166.511 14.3182 163.182 11.7893 158.775 11.7893C153.745 11.7893 149.905 15.341 149.905 21.5703C149.905 27.781 153.68 31.3513 158.775 31.3513C163.656 31.3513 166.604 28.1065 167.041 24.6013L162.968 24.5827C162.587 26.6189 160.988 27.7903 158.84 27.7903C155.949 27.7903 153.987 25.6426 153.987 21.5703C153.987 17.6096 155.921 15.3503 158.868 15.3503C161.072 15.3503 162.662 16.624 162.968 18.716H167.041Z" fill="#969696"/>
<path d="M180.257 17.5259H184.116C184.06 14.1323 181.271 11.7893 177.031 11.7893C172.856 11.7893 169.797 14.0951 169.816 17.5538C169.807 20.3616 171.787 21.9701 175.004 22.7418L177.077 23.2624C179.151 23.7645 180.304 24.3596 180.313 25.6426C180.304 27.0372 178.983 27.9856 176.938 27.9856C174.846 27.9856 173.34 27.0186 173.21 25.1127H169.314C169.416 29.2315 172.364 31.3606 176.984 31.3606C181.633 31.3606 184.367 29.1385 184.376 25.6519C184.367 22.4815 181.977 20.7986 178.667 20.0548L176.957 19.6457C175.302 19.2645 173.916 18.6509 173.944 17.2841C173.944 16.0569 175.032 15.155 177.003 15.155C178.928 15.155 180.108 16.029 180.257 17.5259Z" fill="#969696"/>
<defs>
<clipPath id="clip0_79_243">
<rect width="34.9091" height="43.6364" fill="white"/>
</clipPath>
</defs>
</svg>
